<svg xmlns="http://www.w3.org/2000/svg" viewBox="0 0 127.371 24.001" height="24px" width="128px" aria-labelledby="insightTimerID" role="img">

<title id="insightTimerID">Insight Timer</title>
  <path id="Union_1528" data-name="Union 1528" class="cls-1" d="M11399.43,13550.661l-1.266-.347a.269.269,0,0,1-.19-.133.258.258,0,0,1-.017-.23l.6-1.919a.247.247,0,0,1,.129-.173.26.26,0,0,1,.214-.011l1.007.289a9.482,9.482,0,0,0,2.231.279c1.792,0,3.428-.7,3.9-2.778.074-1.143.1-1.064.125-1.608,0-.181-.125-.31-.363-.079a4.764,4.764,0,0,1-3.581,1.507c-3.429,0-5.5-2.544-5.5-6.516,0-4.18,2.258-6.622,6.043-6.622a8.506,8.506,0,0,1,3.194.6l2.313.959a.3.3,0,0,1,.23.31v10.876c0,3.843-2.261,5.945-6.233,5.945h-.041A11.335,11.335,0,0,1,11399.43,13550.661Zm3.306-15.742c-2,0-3.17,1.455-3.17,3.948,0,2.363,1.067,3.969,2.986,3.969,1.972,0,3.063-1.428,3.063-3.921v-3.187l-.778-.367a4.929,4.929,0,0,0-2.034-.443Zm66.779,3.992c0-4.05,2.234-6.566,6.025-6.566,3.108,0,5.007,1.551,5.007,4.125,0,2-1.222,3.143-3.816,3.53l-4.077.626a2.745,2.745,0,0,0,2.959,2.23,7.058,7.058,0,0,0,2.051-.259l1.143-.285a.263.263,0,0,1,.23.017.266.266,0,0,1,.133.19l.518,1.945a.263.263,0,0,1-.018.231.267.267,0,0,1-.19.133l-1.187.3a10.866,10.866,0,0,1-2.649.347C11471.722,13545.472,11469.515,13542.928,11469.515,13538.911Zm2.88-.533,3.9-.626c.908-.153,1.4-.571,1.4-1.245,0-1.037-.8-1.585-2.207-1.585C11473.772,13534.922,11472.605,13535.99,11472.395,13538.378Zm-91.163,6.543-1.01-.286a.259.259,0,0,1-.19-.132.274.274,0,0,1-.021-.231l.6-1.945a.253.253,0,0,1,.129-.17.244.244,0,0,1,.218-.011l.936.259a13.382,13.382,0,0,0,3.322.442c1.271,0,2-.493,2-1.3,0-.622-.364-1.013-1.222-1.271l-2.632-.681c-2.152-.544-3.166-1.659-3.166-3.529,0-2.333,1.737-3.738,4.751-3.738a13.081,13.081,0,0,1,3.221.415l1.143.289a.271.271,0,0,1,.19.13.267.267,0,0,1,.017.234l-.547,1.945a.27.27,0,0,1-.364.207l-1.143-.31a9.969,9.969,0,0,0-2.521-.312c-1.193,0-1.9.442-1.9,1.146,0,.595.364.959,1.17,1.193l2.588.673c2.262.571,3.282,1.741,3.282,3.608,0,2.442-1.819,3.922-4.881,3.922A14.638,14.638,0,0,1,11381.231,13544.921Zm43.208-3.455v-6.309h-1.272a.266.266,0,0,1-.211-.075.269.269,0,0,1-.074-.211v-2a.267.267,0,0,1,.074-.211.255.255,0,0,1,.211-.072h1.272v-2.989a.3.3,0,0,1,.234-.31l2.3-.785c.218-.055.347.027.347.234v3.833h.319c.238.014,1.194-.014,1.819-1.432.031-.071.065-.136.1-.2l2,1.8a4.413,4.413,0,0,1-3.836,2.438c-.112,0-.225-.007-.333-.018h-.072v6.3c0,.888.392,1.381,1.018,1.381a1.977,1.977,0,0,0,.673-.1c.184-.078.313-.055.392.13l.829,1.765a.28.28,0,0,1-.129.391,3.9,3.9,0,0,1-1.765.442C11425.867,13545.465,11424.439,13543.985,11424.439,13541.466Zm43.388,3.721h-2.336a.27.27,0,0,1-.211-.075.254.254,0,0,1-.071-.211v-7.359c0-1.636-.677-2.622-2.055-2.622-1.973,0-2.856,1.534-2.856,3.921v6.044a.249.249,0,0,1-.075.211.255.255,0,0,1-.211.071h-2.336a.26.26,0,0,1-.211-.071.275.275,0,0,1-.075-.211v-7.363c0-1.608-.724-2.592-2.05-2.592-2,0-2.857,1.534-2.857,3.922v6.043a.254.254,0,0,1-.071.211.27.27,0,0,1-.211.075h-2.315a.26.26,0,0,1-.208-.075.247.247,0,0,1-.074-.211v-12.012a.244.244,0,0,1,.074-.211.26.26,0,0,1,.208-.075h1.3a.285.285,0,0,1,.214.062.294.294,0,0,1,.1.2l.235,1.007c.152.31.313.31.622.023a4.3,4.3,0,0,1,3.374-1.554,4.066,4.066,0,0,1,3.377,1.741c.343.363.571.285.881,0a4.358,4.358,0,0,1,3.557-1.741c2.908,0,4.571,1.843,4.571,4.91v7.659a.27.27,0,0,1-.075.211.266.266,0,0,1-.187.076Zm-46.53,0h-2.312a.239.239,0,0,1-.208-.075.253.253,0,0,1-.078-.207v-7.35c0-1.663-.856-2.622-2.258-2.622-2.105,0-3.013,1.663-3.037,3.922v6.043a.266.266,0,0,1-.074.208.248.248,0,0,1-.211.074h-2.312a.241.241,0,0,1-.208-.074.245.245,0,0,1-.075-.208v-17.6a.252.252,0,0,1,.075-.211.266.266,0,0,1,.208-.074h2.313a.261.261,0,0,1,.285.3v6.475a4.487,4.487,0,0,1,3.428-1.455c2.959,0,4.751,1.843,4.748,4.911v7.665a.239.239,0,0,1-.075.207.243.243,0,0,1-.176.077A.168.168,0,0,1,11421.3,13545.183Zm-43.153,0h-2.312a.252.252,0,0,1-.208-.072.245.245,0,0,1-.074-.21v-7.356c0-1.636-.864-2.622-2.262-2.622-1.922,0-3.037,1.4-3.037,3.921v6.044a.271.271,0,0,1-.075.211.255.255,0,0,1-.211.071h-2.312a.261.261,0,0,1-.211-.071.274.274,0,0,1-.074-.211v-12a.26.26,0,0,1,.285-.286h1.3a.281.281,0,0,1,.211.062.275.275,0,0,1,.1.2l.234,1.03c.156.313.313.289.6.027a4.667,4.667,0,0,1,3.581-1.585c2.959,0,4.751,1.847,4.751,4.908v7.662a.258.258,0,0,1-.071.21.267.267,0,0,1-.18.074Zm106.563,0h-2.312a.265.265,0,0,1-.286-.286v-12.016a.268.268,0,0,1,.075-.21.253.253,0,0,1,.211-.072h1.3a.315.315,0,0,1,.344.231l.419,1.479c.152.286.282.347.517.078a4.821,4.821,0,0,1,4.1-2.051.266.266,0,0,1,.211.075.269.269,0,0,1,.074.211v2.023l-.01-.007a.257.257,0,0,1-.071.211.279.279,0,0,1-.215.074c-2.826.13-4.074,2.105-4.074,6.881v3.091a.25.25,0,0,1-.074.208.257.257,0,0,1-.187.079Zm-40.854-1.438v-9.972a1.442,1.442,0,1,1,2.884,0v9.972a1.442,1.442,0,0,1-2.884,0Zm-51.584,0v-9.972a1.442,1.442,0,1,1,2.884,0v9.972a1.442,1.442,0,0,1-2.884,0Zm-27.626,1.435h-2.363a.247.247,0,0,1-.211-.074.266.266,0,0,1-.074-.211v-17.576a.266.266,0,0,1,.074-.211.269.269,0,0,1,.211-.074h2.363a.268.268,0,0,1,.211.074.248.248,0,0,1,.075.211v17.576a.248.248,0,0,1-.075.211.243.243,0,0,1-.178.076A.189.189,0,0,1,11364.642,13545.176Zm75.421,0h-2.387a.26.26,0,0,1-.286-.285v-15.239h-.851v-.011a5.734,5.734,0,0,0-4.091,1.653l-1.938-1.741a8.564,8.564,0,0,1,6.029-2.51v-.014h9.8a.271.271,0,0,1,.211.074.266.266,0,0,1,.075.211v2.051a.261.261,0,0,1-.286.286h-5.988v15.239a.257.257,0,0,1-.071.211.281.281,0,0,1-.19.075Z" transform="translate(-11361.992 -13527.008)"/>
</svg>
